<svg width="640" height="800" viewBox="0 0 640 800" fill="none" xmlns="http://www.w3.org/2000/svg">
  <defs>
    <linearGradient id="bg" x1="0" y1="0" x2="640" y2="800" gradientUnits="userSpaceOnUse">
      <stop offset="0%" stop-color="#F1F5F9" />
      <stop offset="40%" stop-color="#E0F2FE" />
      <stop offset="100%" stop-color="#FCE7F3" />
    </linearGradient>
    <linearGradient id="badge" x1="0" y1="0" x2="1" y2="1">
      <stop offset="0%" stop-color="#0369A1" />
      <stop offset="100%" stop-color="#0EA5E9" />
    </linearGradient>
    <filter id="shadow" x="-20%" y="-20%" width="140%" height="140%" color-interpolation-filters="sRGB">
      <feGaussianBlur stdDeviation="35" result="blur" />
      <feOffset dy="24" result="offset" />
      <feComponentTransfer>
        <feFuncA type="linear" slope="0.18" />
      </feComponentTransfer>
      <feMerge>
        <feMergeNode in="offset" />
        <feMergeNode in="SourceGraphic" />
      </feMerge>
    </filter>
  </defs>

  <rect width="640" height="800" rx="48" fill="url(#bg)" />

  <circle cx="320" cy="240" r="160" fill="#38BDF8" opacity="0.15" />
  <circle cx="180" cy="520" r="140" fill="#FDE68A" opacity="0.22" />
  <circle cx="480" cy="560" r="180" fill="#22D3EE" opacity="0.18" />

  <g filter="url(#shadow)">
    <rect x="120" y="170" width="400" height="520" rx="72" fill="white" />
  </g>

  <rect x="180" y="200" width="280" height="280" rx="96" fill="#E0F2FE" />
  <rect x="208" y="228" width="224" height="224" rx="84" fill="#0EA5E9" opacity="0.18" />
  <rect x="220" y="240" width="200" height="200" rx="80" fill="#F1F5F9" />

  <path d="M320 300C298 300 284 314 284 336C284 362 302 376 320 376C338 376 356 362 356 336C356 314 342 300 320 300Z" fill="#0F172A" opacity="0.85" />
  <path d="M260 400C260 358 286 332 320 332C354 332 380 358 380 400V404C380 438 360 456 320 456C280 456 260 438 260 404V400Z" fill="#0F172A" opacity="0.82" />

  <rect x="180" y="504" width="280" height="8" rx="4" fill="#CBD5F5" />
  <rect x="220" y="540" width="200" height="40" rx="20" fill="#0F172A" opacity="0.9" />
  <text x="320" y="568" text-anchor="middle" font-family="'Inter', 'Helvetica', 'Arial', sans-serif" font-size="28" font-weight="600" fill="white">Ashish Ranjan</text>

  <text x="320" y="620" text-anchor="middle" font-family="'Inter', 'Helvetica', 'Arial', sans-serif" font-size="18" fill="#0F172A" opacity="0.7">Observability · Data · Product</text>

  <g transform="translate(250 656)">
    <rect width="140" height="44" rx="22" fill="url(#badge)" />
    <text x="70" y="30" text-anchor="middle" font-family="'Inter', 'Helvetica', 'Arial', sans-serif" font-size="18" font-weight="600" fill="white">AR</text>
  </g>
</svg>
